<svg width="123" height="133" viewBox="0 0 123 133" fill="none" xmlns="http://www.w3.org/2000/svg">
<path d="M90.2273 63.5H70.3182C69.9545 60.9242 69.2121 58.6364 68.0909 56.6364C66.9697 54.6061 65.5303 52.8788 63.7727 51.4545C62.0152 50.0303 59.9848 48.9394 57.6818 48.1818C55.4091 47.4242 52.9394 47.0455 50.2727 47.0455C45.4545 47.0455 41.2576 48.2424 37.6818 50.6364C34.1061 53 31.3333 56.4545 29.3636 61C27.3939 65.5151 26.4091 71 26.4091 77.4545C26.4091 84.0909 27.3939 89.6667 29.3636 94.1818C31.3636 98.697 34.1515 102.106 37.7273 104.409C41.303 106.712 45.4394 107.864 50.1364 107.864C52.7727 107.864 55.2121 107.515 57.4545 106.818C59.7273 106.121 61.7424 105.106 63.5 103.773C65.2576 102.409 66.7121 100.758 67.8636 98.8182C69.0455 96.8788 69.8636 94.6667 70.3182 92.1818L90.2273 92.2727C89.7121 96.5455 88.4242 100.667 86.3636 104.636C84.3333 108.576 81.5909 112.106 78.1364 115.227C74.7121 118.318 70.6212 120.773 65.8636 122.591C61.1364 124.379 55.7879 125.273 49.8182 125.273C41.5152 125.273 34.0909 123.394 27.5455 119.636C21.0303 115.879 15.8788 110.439 12.0909 103.318C8.33333 96.197 6.45455 87.5758 6.45455 77.4545C6.45455 67.303 8.36364 58.6667 12.1818 51.5455C16 44.4242 21.1818 39 27.7273 35.2727C34.2727 31.5151 41.6364 29.6364 49.8182 29.6364C55.2121 29.6364 60.2121 30.3939 64.8182 31.9091C69.4545 33.4242 73.5606 35.6364 77.1364 38.5454C80.7121 41.4242 83.6212 44.9545 85.8636 49.1364C88.1364 53.3182 89.5909 58.1061 90.2273 63.5Z" fill="#022C43"/>
<path d="M90.2273 63.5V64H90.7897L90.7238 63.4414L90.2273 63.5ZM70.3182 63.5L69.8231 63.5699L69.8838 64H70.3182V63.5ZM68.0909 56.6364L67.6532 56.8781L67.6548 56.8809L68.0909 56.6364ZM63.7727 51.4545L63.4579 51.843L63.4579 51.843L63.7727 51.4545ZM57.6818 48.1818L57.5237 48.6562L57.5256 48.6568L57.6818 48.1818ZM37.6818 50.6364L37.9575 51.0535L37.96 51.0518L37.6818 50.6364ZM29.3636 61L29.8219 61.1999L29.8224 61.1988L29.3636 61ZM29.3636 94.1818L28.9053 94.3817L28.9065 94.3843L29.3636 94.1818ZM37.7273 104.409L37.4565 104.829L37.4565 104.829L37.7273 104.409ZM57.4545 106.818L57.308 106.34L57.3061 106.341L57.4545 106.818ZM63.5 103.773L63.8022 104.171L63.8065 104.168L63.5 103.773ZM67.8636 98.8182L67.4366 98.558L67.4337 98.5629L67.8636 98.8182ZM70.3182 92.1818L70.3205 91.6818L69.9017 91.6799L69.8263 92.0918L70.3182 92.1818ZM90.2273 92.2727L90.7237 92.3326L90.7909 91.7753L90.2296 91.7727L90.2273 92.2727ZM86.3636 104.636L85.9199 104.406L85.9192 104.407L86.3636 104.636ZM78.1364 115.227L78.4714 115.598L78.4716 115.598L78.1364 115.227ZM65.8636 122.591L66.0405 123.059L66.0421 123.058L65.8636 122.591ZM27.5455 119.636L27.2957 120.069L27.2965 120.07L27.5455 119.636ZM12.0909 103.318L11.6487 103.552L11.6495 103.553L12.0909 103.318ZM12.1818 51.5455L12.6225 51.7817L12.6225 51.7817L12.1818 51.5455ZM27.7273 35.2727L27.9747 35.7072L27.9762 35.7064L27.7273 35.2727ZM64.8182 31.9091L64.6619 32.3841L64.6629 32.3844L64.8182 31.9091ZM77.1364 38.5454L76.8208 38.9333L76.8228 38.9349L77.1364 38.5454ZM85.8636 49.1364L85.423 49.3727L85.4243 49.3751L85.8636 49.1364ZM90.2273 63H70.3182V64H90.2273V63ZM70.8133 63.4301C70.4421 60.8012 69.6824 58.4527 68.5271 56.3919L67.6548 56.8809C68.7419 58.82 69.467 61.0473 69.8231 63.5699L70.8133 63.4301ZM68.5286 56.3946C67.3771 54.3094 65.8964 52.5319 64.0875 51.0661L63.4579 51.843C65.1642 53.2257 66.5623 54.9027 67.6532 56.8781L68.5286 56.3946ZM64.0875 51.0661C62.2795 49.6009 60.1946 48.482 57.8381 47.7069L57.5256 48.6568C59.7751 49.3968 61.7508 50.4596 63.4579 51.843L64.0875 51.0661ZM57.8399 47.7075C55.5108 46.9311 52.9871 46.5455 50.2727 46.5455V47.5455C52.8917 47.5455 55.3074 47.9174 57.5237 48.6562L57.8399 47.7075ZM50.2727 46.5455C45.3678 46.5455 41.0714 47.7654 37.4037 50.2209L37.96 51.0518C41.4438 48.7195 45.5413 47.5455 50.2727 47.5455V46.5455ZM37.4061 50.2193C33.7374 52.6443 30.907 56.181 28.9049 60.8012L29.8224 61.1988C31.7597 56.7281 34.4747 53.3557 37.9575 51.0535L37.4061 50.2193ZM28.9053 60.8001C26.901 65.3946 25.9091 70.9516 25.9091 77.4545H26.9091C26.9091 71.0484 27.8869 65.6357 29.8219 61.1999L28.9053 60.8001ZM25.9091 77.4545C25.9091 84.1371 26.9004 89.7857 28.9053 94.3817L29.8219 93.9819C27.8875 89.5476 26.9091 84.0447 26.9091 77.4545H25.9091ZM28.9065 94.3843C30.9395 98.974 33.7861 102.465 37.4565 104.829L37.998 103.989C34.5169 101.747 31.7878 98.4199 29.8208 93.9793L28.9065 94.3843ZM37.4565 104.829C41.1213 107.19 45.3538 108.364 50.1364 108.364V107.364C45.525 107.364 41.4847 106.234 37.998 103.989L37.4565 104.829ZM50.1364 108.364C52.817 108.364 55.307 108.009 57.603 107.296L57.3061 106.341C55.1173 107.021 52.7285 107.364 50.1364 107.364V108.364ZM57.6011 107.296C59.9256 106.583 61.9943 105.543 63.8022 104.171L63.1978 103.374C61.4905 104.67 59.5289 105.659 57.308 106.34L57.6011 107.296ZM63.8065 104.168C65.6143 102.765 67.1105 101.066 68.2936 99.0735L67.4337 98.5629C66.3138 100.449 64.9008 102.053 63.1935 103.378L63.8065 104.168ZM68.2906 99.0784C69.5077 97.0811 70.3457 94.8101 70.81 92.2718L69.8263 92.0918C69.3816 94.5232 68.5832 96.6764 67.4367 98.558L68.2906 99.0784ZM70.3159 92.6818L90.225 92.7727L90.2296 91.7727L70.3205 91.6818L70.3159 92.6818ZM89.7309 92.2129C89.2232 96.4237 87.9539 100.487 85.9199 104.406L86.8074 104.867C88.8945 100.846 90.2011 96.6672 90.7237 92.3326L89.7309 92.2129ZM85.9192 104.407C83.9178 108.291 81.2133 111.773 77.8012 114.856L78.4716 115.598C81.9685 112.439 84.7488 108.861 86.8081 104.865L85.9192 104.407ZM77.8013 114.856C74.4274 117.902 70.3911 120.325 65.6851 122.124L66.0421 123.058C70.8514 121.22 74.9968 118.735 78.4714 115.598L77.8013 114.856ZM65.6868 122.123C61.0252 123.886 55.7382 124.773 49.8182 124.773V125.773C55.8376 125.773 61.2475 124.871 66.0405 123.059L65.6868 122.123ZM49.8182 124.773C41.5935 124.773 34.2567 122.913 27.7944 119.203L27.2965 120.07C33.9252 123.875 41.4368 125.773 49.8182 125.773V124.773ZM27.7953 119.203C21.3672 115.496 16.2795 110.128 12.5323 103.083L11.6495 103.553C15.4781 110.751 20.6934 116.262 27.2957 120.069L27.7953 119.203ZM12.5331 103.085C8.82202 96.0517 6.95455 87.5149 6.95455 77.4545H5.95455C5.95455 87.6366 7.84465 96.3422 11.6487 103.552L12.5331 103.085ZM6.95455 77.4545C6.95455 67.3648 8.85199 58.814 12.6225 51.7817L11.7412 51.3092C7.87528 58.5194 5.95455 67.2413 5.95455 77.4545H6.95455ZM12.6225 51.7817C16.3996 44.7372 21.517 39.3845 27.9747 35.7072L27.4799 34.8382C20.8466 38.6155 15.6004 44.1113 11.7412 51.3092L12.6225 51.7817ZM27.9762 35.7064C34.4396 31.9959 41.7161 30.1364 49.8182 30.1364V29.1364C41.5566 29.1364 34.1059 31.0344 27.4783 34.8391L27.9762 35.7064ZM49.8182 30.1364C55.165 30.1364 60.1116 30.8872 64.6619 32.3841L64.9744 31.4341C60.3126 29.9006 55.2593 29.1364 49.8182 29.1364V30.1364ZM64.6629 32.3844C69.2443 33.8816 73.2954 36.0651 76.8208 38.9333L77.4519 38.1576C73.8258 35.2076 69.6648 32.9669 64.9735 31.4338L64.6629 32.3844ZM76.8228 38.9349C80.3446 41.7703 83.2111 45.2479 85.423 49.3726L86.3043 48.9001C84.0313 44.6612 81.0796 41.0782 77.4499 38.156L76.8228 38.9349ZM85.4243 49.3751C87.6627 53.4937 89.1008 58.219 89.7307 63.5586L90.7238 63.4414C90.0811 57.9932 88.61 53.1426 86.303 48.8976L85.4243 49.3751Z" fill="black"/>
<path d="M111.227 63.5H91.3182C90.9545 60.9242 90.2121 58.6364 89.0909 56.6364C87.9697 54.6061 86.5303 52.8788 84.7727 51.4545C83.0152 50.0303 80.9848 48.9394 78.6818 48.1818C76.4091 47.4242 73.9394 47.0455 71.2727 47.0455C66.4545 47.0455 62.2576 48.2424 58.6818 50.6364C55.1061 53 52.3333 56.4545 50.3636 61C48.3939 65.5151 47.4091 71 47.4091 77.4545C47.4091 84.0909 48.3939 89.6667 50.3636 94.1818C52.3636 98.697 55.1515 102.106 58.7273 104.409C62.303 106.712 66.4394 107.864 71.1364 107.864C73.7727 107.864 76.2121 107.515 78.4545 106.818C80.7273 106.121 82.7424 105.106 84.5 103.773C86.2576 102.409 87.7121 100.758 88.8636 98.8182C90.0455 96.8788 90.8636 94.6667 91.3182 92.1818L111.227 92.2727C110.712 96.5455 109.424 100.667 107.364 104.636C105.333 108.576 102.591 112.106 99.1364 115.227C95.7121 118.318 91.6212 120.773 86.8636 122.591C82.1364 124.379 76.7879 125.273 70.8182 125.273C62.5152 125.273 55.0909 123.394 48.5455 119.636C42.0303 115.879 36.8788 110.439 33.0909 103.318C29.3333 96.197 27.4545 87.5758 27.4545 77.4545C27.4545 67.303 29.3636 58.6667 33.1818 51.5455C37 44.4242 42.1818 39 48.7273 35.2727C55.2727 31.5151 62.6364 29.6364 70.8182 29.6364C76.2121 29.6364 81.2121 30.3939 85.8182 31.9091C90.4545 33.4242 94.5606 35.6364 98.1364 38.5454C101.712 41.4242 104.621 44.9545 106.864 49.1364C109.136 53.3182 110.591 58.1061 111.227 63.5Z" fill="#022C43"/>
<path d="M111.227 63.5V64H111.79L111.724 63.4414L111.227 63.5ZM91.3182 63.5L90.8231 63.5699L90.8838 64H91.3182V63.5ZM89.0909 56.6364L88.6532 56.8781L88.6548 56.8809L89.0909 56.6364ZM84.7727 51.4545L84.4579 51.843L84.4579 51.843L84.7727 51.4545ZM78.6818 48.1818L78.5237 48.6562L78.5256 48.6568L78.6818 48.1818ZM58.6818 50.6364L58.9575 51.0535L58.96 51.0518L58.6818 50.6364ZM50.3636 61L50.8219 61.1999L50.8224 61.1988L50.3636 61ZM50.3636 94.1818L49.9053 94.3817L49.9065 94.3843L50.3636 94.1818ZM58.7273 104.409L58.4565 104.829L58.4565 104.829L58.7273 104.409ZM78.4545 106.818L78.308 106.34L78.3061 106.341L78.4545 106.818ZM84.5 103.773L84.8022 104.171L84.8065 104.168L84.5 103.773ZM88.8636 98.8182L88.4366 98.558L88.4337 98.5629L88.8636 98.8182ZM91.3182 92.1818L91.3205 91.6818L90.9017 91.6799L90.8263 92.0918L91.3182 92.1818ZM111.227 92.2727L111.724 92.3326L111.791 91.7753L111.23 91.7727L111.227 92.2727ZM107.364 104.636L106.92 104.406L106.919 104.407L107.364 104.636ZM99.1364 115.227L99.4714 115.598L99.4716 115.598L99.1364 115.227ZM86.8636 122.591L87.0405 123.059L87.0421 123.058L86.8636 122.591ZM48.5455 119.636L48.2957 120.069L48.2965 120.07L48.5455 119.636ZM33.0909 103.318L32.6487 103.552L32.6495 103.553L33.0909 103.318ZM33.1818 51.5455L33.6225 51.7817L33.6225 51.7817L33.1818 51.5455ZM48.7273 35.2727L48.9747 35.7072L48.9762 35.7064L48.7273 35.2727ZM85.8182 31.9091L85.6619 32.3841L85.6629 32.3844L85.8182 31.9091ZM98.1364 38.5454L97.8208 38.9333L97.8228 38.9349L98.1364 38.5454ZM106.864 49.1364L106.423 49.3727L106.424 49.3751L106.864 49.1364ZM111.227 63H91.3182V64H111.227V63ZM91.8133 63.4301C91.4421 60.8012 90.6824 58.4527 89.5271 56.3919L88.6548 56.8809C89.7419 58.82 90.467 61.0473 90.8231 63.5699L91.8133 63.4301ZM89.5286 56.3946C88.3771 54.3094 86.8964 52.5319 85.0875 51.0661L84.4579 51.843C86.1642 53.2257 87.5623 54.9027 88.6532 56.8781L89.5286 56.3946ZM85.0875 51.0661C83.2795 49.6009 81.1946 48.482 78.8381 47.7069L78.5256 48.6568C80.7751 49.3968 82.7508 50.4596 84.4579 51.843L85.0875 51.0661ZM78.8399 47.7075C76.5108 46.9311 73.9871 46.5455 71.2727 46.5455V47.5455C73.8917 47.5455 76.3074 47.9174 78.5237 48.6562L78.8399 47.7075ZM71.2727 46.5455C66.3678 46.5455 62.0714 47.7654 58.4037 50.2209L58.96 51.0518C62.4438 48.7195 66.5413 47.5455 71.2727 47.5455V46.5455ZM58.4061 50.2193C54.7374 52.6443 51.907 56.181 49.9049 60.8012L50.8224 61.1988C52.7597 56.7281 55.4747 53.3557 58.9575 51.0535L58.4061 50.2193ZM49.9053 60.8001C47.901 65.3946 46.9091 70.9516 46.9091 77.4545H47.9091C47.9091 71.0484 48.8869 65.6357 50.8219 61.1999L49.9053 60.8001ZM46.9091 77.4545C46.9091 84.1371 47.9004 89.7857 49.9053 94.3817L50.8219 93.9819C48.8875 89.5476 47.9091 84.0447 47.9091 77.4545H46.9091ZM49.9065 94.3843C51.9395 98.974 54.7861 102.465 58.4565 104.829L58.998 103.989C55.5169 101.747 52.7878 98.4199 50.8208 93.9793L49.9065 94.3843ZM58.4565 104.829C62.1213 107.19 66.3538 108.364 71.1364 108.364V107.364C66.525 107.364 62.4847 106.234 58.998 103.989L58.4565 104.829ZM71.1364 108.364C73.817 108.364 76.307 108.009 78.603 107.296L78.3061 106.341C76.1173 107.021 73.7285 107.364 71.1364 107.364V108.364ZM78.6011 107.296C80.9256 106.583 82.9943 105.543 84.8022 104.171L84.1978 103.374C82.4905 104.67 80.5289 105.659 78.308 106.34L78.6011 107.296ZM84.8065 104.168C86.6143 102.765 88.1105 101.066 89.2936 99.0735L88.4337 98.5629C87.3138 100.449 85.9008 102.053 84.1935 103.378L84.8065 104.168ZM89.2906 99.0784C90.5077 97.0811 91.3457 94.8101 91.81 92.2718L90.8263 92.0918C90.3816 94.5232 89.5832 96.6764 88.4367 98.558L89.2906 99.0784ZM91.3159 92.6818L111.225 92.7727L111.23 91.7727L91.3205 91.6818L91.3159 92.6818ZM110.731 92.2129C110.223 96.4237 108.954 100.487 106.92 104.406L107.807 104.867C109.895 100.846 111.201 96.6672 111.724 92.3326L110.731 92.2129ZM106.919 104.407C104.918 108.291 102.213 111.773 98.8012 114.856L99.4716 115.598C102.968 112.439 105.749 108.861 107.808 104.865L106.919 104.407ZM98.8013 114.856C95.4274 117.902 91.3911 120.325 86.6851 122.124L87.0421 123.058C91.8514 121.22 95.9968 118.735 99.4714 115.598L98.8013 114.856ZM86.6868 122.123C82.0252 123.886 76.7382 124.773 70.8182 124.773V125.773C76.8376 125.773 82.2475 124.871 87.0405 123.059L86.6868 122.123ZM70.8182 124.773C62.5935 124.773 55.2567 122.913 48.7944 119.203L48.2965 120.07C54.9252 123.875 62.4368 125.773 70.8182 125.773V124.773ZM48.7953 119.203C42.3672 115.496 37.2795 110.128 33.5323 103.083L32.6495 103.553C36.4781 110.751 41.6934 116.262 48.2957 120.069L48.7953 119.203ZM33.5331 103.085C29.822 96.0517 27.9545 87.5149 27.9545 77.4545H26.9545C26.9545 87.6366 28.8446 96.3422 32.6487 103.552L33.5331 103.085ZM27.9545 77.4545C27.9545 67.3648 29.852 58.814 33.6225 51.7817L32.7412 51.3092C28.8753 58.5194 26.9545 67.2413 26.9545 77.4545H27.9545ZM33.6225 51.7817C37.3996 44.7372 42.517 39.3845 48.9747 35.7072L48.4799 34.8382C41.8466 38.6155 36.6004 44.1113 32.7412 51.3092L33.6225 51.7817ZM48.9762 35.7064C55.4396 31.9959 62.7161 30.1364 70.8182 30.1364V29.1364C62.5566 29.1364 55.1059 31.0344 48.4783 34.8391L48.9762 35.7064ZM70.8182 30.1364C76.165 30.1364 81.1116 30.8872 85.6619 32.3841L85.9744 31.4341C81.3126 29.9006 76.2593 29.1364 70.8182 29.1364V30.1364ZM85.6629 32.3844C90.2443 33.8816 94.2954 36.0651 97.8208 38.9333L98.4519 38.1576C94.8258 35.2076 90.6648 32.9669 85.9735 31.4338L85.6629 32.3844ZM97.8228 38.9349C101.345 41.7703 104.211 45.2479 106.423 49.3726L107.304 48.9001C105.031 44.6612 102.08 41.0782 98.4499 38.156L97.8228 38.9349ZM106.424 49.3751C108.663 53.4937 110.101 58.219 110.731 63.5586L111.724 63.4414C111.081 57.9932 109.61 53.1426 107.303 48.8976L106.424 49.3751Z" fill="black"/>
</svg>
